<svg width="24" height="24" viewBox="0 0 24 24" fill="none" xmlns="http://www.w3.org/2000/svg">
<path d="M9.06741 3.22757C7.70392 3.07518 6.29488 3.07518 4.93138 3.22757C4.0542 3.32561 3.3449 4.01637 3.24146 4.9008C3.07837 6.29522 3.07837 7.70389 3.24146 9.09831C3.3449 9.98275 4.0542 10.6735 4.93139 10.7715C6.29488 10.9239 7.70392 10.9239 9.06741 10.7715C9.94459 10.6735 10.6539 9.98275 10.7573 9.09831C10.9204 7.70389 10.9204 6.29522 10.7573 4.9008C10.6539 4.01637 9.94459 3.32561 9.06741 3.22757Z" fill="#141519"/>
<path d="M9.06741 13.2276C7.70392 13.0752 6.29488 13.0752 4.93138 13.2276C4.0542 13.3256 3.3449 14.0164 3.24146 14.9008C3.07837 16.2952 3.07837 17.7039 3.24146 19.0983C3.3449 19.9827 4.0542 20.6735 4.93139 20.7715C6.29488 20.9239 7.70392 20.9239 9.06741 20.7715C9.94459 20.6735 10.6539 19.9827 10.7573 19.0983C10.9204 17.7039 10.9204 16.2952 10.7573 14.9008C10.6539 14.0164 9.94459 13.3256 9.06741 13.2276Z" fill="#141519"/>
<path d="M19.0674 3.22757C17.7039 3.07518 16.2949 3.07518 14.9314 3.22757C14.0542 3.32561 13.3449 4.01637 13.2415 4.9008C13.0784 6.29522 13.0784 7.70389 13.2415 9.09831C13.3449 9.98275 14.0542 10.6735 14.9314 10.7715C16.2949 10.9239 17.7039 10.9239 19.0674 10.7715C19.9446 10.6735 20.6539 9.98275 20.7574 9.09831C20.9204 7.70389 20.9204 6.29522 20.7574 4.9008C20.6539 4.01637 19.9446 3.32561 19.0674 3.22757Z" fill="#141519"/>
<path d="M19.0674 13.2276C17.7039 13.0752 16.2949 13.0752 14.9314 13.2276C14.0542 13.3256 13.3449 14.0164 13.2415 14.9008C13.0784 16.2952 13.0784 17.7039 13.2415 19.0983C13.3449 19.9827 14.0542 20.6735 14.9314 20.7715C16.2949 20.9239 17.7039 20.9239 19.0674 20.7715C19.9446 20.6735 20.6539 19.9827 20.7574 19.0983C20.9204 17.7039 20.9204 16.2952 20.7574 14.9008C20.6539 14.0164 19.9446 13.3256 19.0674 13.2276Z" fill="#141519"/>
</svg>
