<svg width="24" height="24" viewBox="0 0 24 24" fill="none" xmlns="http://www.w3.org/2000/svg">
<path fill-rule="evenodd" clip-rule="evenodd" d="M3.19498 8.43149C2.91152 10.9785 2.92416 13.916 3.31859 16.4526C3.53684 17.8562 4.72135 18.9322 6.1835 19.0551L7.71158 19.1836C10.8978 19.4514 14.1021 19.4514 17.2884 19.1836L18.8165 19.0551C20.2786 18.9322 21.4631 17.8562 21.6814 16.4526C22.0758 13.916 22.0885 10.9786 21.805 8.43165C21.7684 8.13637 21.7272 7.84149 21.6814 7.5471C21.4631 6.14353 20.2786 5.06751 18.8165 4.94459L17.2884 4.81613C14.1021 4.54827 10.8978 4.54827 7.71158 4.81613L6.18349 4.94459C4.72135 5.06751 3.53684 6.14353 3.31859 7.5471C3.27282 7.84144 3.23162 8.13627 3.19498 8.43149ZM7.84302 6.27839C10.9418 6.01788 14.0582 6.01788 17.157 6.27839L18.6851 6.40685C19.4483 6.47101 20.0666 7.0327 20.1805 7.76537C20.1924 7.84145 20.2039 7.91758 20.2151 7.99373L14.5883 11.0168C13.2896 11.7146 11.7103 11.7146 10.4116 11.0168L4.78491 7.99377C4.7961 7.9176 4.80761 7.84147 4.81945 7.76537C4.93337 7.0327 5.55169 6.47101 6.31493 6.40685L7.84302 6.27839ZM20.4008 9.57302C20.5971 11.7921 20.5236 14.0278 20.1805 16.2343C20.0666 16.967 19.4483 17.5287 18.6851 17.5928L17.157 17.7213C14.0582 17.9818 10.9418 17.9818 7.84302 17.7213L6.31493 17.5928C5.55169 17.5287 4.93337 16.967 4.81945 16.2343C4.47635 14.0278 4.40293 11.7921 4.59919 9.57306L9.6745 12.2999C11.4317 13.2439 13.5683 13.2439 15.3254 12.2999L20.4008 9.57302Z" fill="#7E7E7E"/>
</svg>
