<svg width="24" height="24" viewBox="0 0 24 24" fill="none" xmlns="http://www.w3.org/2000/svg">
<path fill-rule="evenodd" clip-rule="evenodd" d="M6.24489 7.21442V7.08933C6.24489 4.82734 8.01826 2.85231 10.5551 2.28898C11.4928 2.08076 12.4762 2.08076 13.4139 2.28898C15.9507 2.85231 17.7241 4.82734 17.7241 7.08933V7.21442H19.5379C20.2282 7.21442 20.8141 7.65162 20.9141 8.24144L21.1784 9.79878C21.6986 12.865 21.6986 15.9803 21.1784 19.0465C20.9271 20.5273 19.5445 21.672 17.8207 21.8264L17.0608 21.8944C13.6856 22.1967 10.2833 22.1967 6.90811 21.8944L6.14822 21.8264C4.42449 21.672 3.0418 20.5273 2.79057 19.0465C2.27033 15.9803 2.27033 12.865 2.79057 9.79878L3.0548 8.24144C3.15488 7.65162 3.74073 7.21442 4.43103 7.21442H6.24489ZM11.0065 3.80488C11.648 3.66241 12.3209 3.66241 12.9625 3.80488C14.6982 4.19032 15.9116 5.54165 15.9116 7.08933V7.21442H8.05739V7.08933C8.05739 5.54165 9.27074 4.19032 11.0065 3.80488ZM6.24489 8.77964V11.1275C6.24489 11.5597 6.65063 11.9101 7.15114 11.9101C7.65165 11.9101 8.05739 11.5597 8.05739 11.1275V8.77964H15.9116V11.1275C15.9116 11.5597 16.3173 11.9101 16.8178 11.9101C17.3183 11.9101 17.7241 11.5597 17.7241 11.1275V8.77964H19.1736L19.385 10.0257C19.8797 12.9414 19.8797 15.9039 19.385 18.8196C19.254 19.5919 18.5328 20.189 17.6338 20.2695L16.8739 20.3376C13.623 20.6287 10.346 20.6287 7.09507 20.3376L6.33518 20.2695C5.43613 20.189 4.71496 19.5919 4.58392 18.8196C4.08921 15.9039 4.08921 12.9414 4.58392 10.0257L4.79534 8.77964H6.24489Z" fill="#7E7E7E"/>
</svg>
