<svg width="43" height="29" viewBox="0 0 43 29" fill="none" xmlns="http://www.w3.org/2000/svg">
<ellipse rx="12.5" ry="13" transform="matrix(-1 0 0 1 15.5 15)" fill="#141519"/>
<path d="M14 28C11.6977 28 9.4309 27.4322 7.40045 26.3469C5.36999 25.2616 3.63852 23.6923 2.35943 21.778C1.08033 19.8637 0.29308 17.6635 0.0674139 15.3722C-0.158252 13.081 0.184629 10.7695 1.06569 8.64243C1.94674 6.51537 3.33878 4.63843 5.11849 3.17785C6.89821 1.71728 9.01066 0.718166 11.2687 0.269006C13.5268 -0.180153 15.8608 -0.0654913 18.064 0.602835C20.2672 1.27116 22.2715 2.47252 23.8995 4.1005L18.958 9.04201C18.1426 8.22666 17.1388 7.62498 16.0354 7.29026C14.932 6.95554 13.763 6.89811 12.6321 7.12306C11.5012 7.34802 10.4432 7.84841 9.55185 8.57991C8.66051 9.31141 7.96333 10.2515 7.52207 11.3168C7.08081 12.3821 6.90908 13.5397 7.0221 14.6873C7.13512 15.8348 7.5294 16.9367 8.17002 17.8955C8.81063 18.8542 9.6778 19.6402 10.6947 20.1837C11.7116 20.7273 12.8469 21.0117 14 21.0117L14 28Z" fill="white"/>
<path d="M30 29C26.5522 29 23.2456 27.5777 20.8076 25.0459C18.3696 22.5142 17 19.0804 17 15.5C17 11.9196 18.3696 8.4858 20.8076 5.95406C23.2456 3.42232 26.5522 2 30 2L30 8.73875C28.2732 8.73875 26.6172 9.4511 25.3961 10.7191C24.1751 11.9871 23.4892 13.7068 23.4892 15.5C23.4892 17.2932 24.1751 19.0129 25.3961 20.2809C26.6172 21.5489 28.2732 22.2612 30 22.2612L30 29Z" fill="white"/>
</svg>
